# AST/ASF file generated using VICON BodyLanguage
# -----------------------------------------------
:version 1.10
:name VICON
:units
  mass 1.0
  length 0.45
  angle deg
:documentation
   .ast/.asf automatically generated from VICON data using
   VICON BodyBuilder and BodyLanguage model FoxedUp or BRILLIANT.MOD
:root
   order TX TY TZ RX RY RZ
   axis XYZ
   position 0 0 0  
   orientation 0 0 0 
:bonedata
  begin
     id 1 
     name lhipjoint
     direction 0.700308 -0.549349 0.455834 
     length 2.59063 
     axis 0 0 0  XYZ
  end
  begin
     id 2 
     name lfemur
     direction 0.34202 -0.939693 0  
     length 6.31066  
     axis 0 0 20  XYZ
    dof rx ry rz
    limits (-160.0 20.0)
           (-70.0 70.0)
           (-60.0 70.0)
  end
  begin
     id 3 
     name ltibia
     direction 0.34202 -0.939693 0   
     length 7.36093   
     axis 0 0 20   XYZ
    dof rx
    limits (-10.0 170.0)
  end
  begin
     id 4 
     name lfoot
     direction 0.0905332 -0.248738 0.96433   
     length 2.0233   
     axis -90 7.62852e-016 20   XYZ
    dof rx rz
    limits (-45.0 90.0)
           (-70.0 20.0)
  end
  begin
     id 5 
     name ltoes
     direction 1.53573e-011 -4.21855e-011 1   
     length 1.01524   
     axis -90 7.62852e-016 20   XYZ
    dof rx
    limits (-90.0 20.0)
  end
  begin
     id 6 
     name rhipjoint
     direction -0.61416 -0.607328 0.503944   
     length 2.34332  
     axis 0 0 0  XYZ 
  end
  begin
     id 7 
     name rfemur
     direction -0.34202 -0.939693 0   
     length 6.58548   
     axis 0 0 -20   XYZ
    dof rx ry rz
    limits (-160.0 20.0)
           (-70.0 70.0)
           (-70.0 60.0)
  end
  begin
     id 8 
     name rtibia
     direction -0.34202 -0.939693 0   
     length 7.20707   
     axis 0 0 -20   XYZ
    dof rx
    limits (-10.0 170.0)
 end
 begin
     id 9 
     name rfoot
     direction -0.136772 -0.375778 0.916561   
     length 1.92184  
     axis -90 -7.62852e-016 -20   XYZ
    dof rx rz
    limits (-45.0 90.0)
           (-20.0 70.0)
  end
  begin
     id 10 
     name rtoes
     direction -1.53535e-011 -4.21828e-011 1   
     length 0.951089   
     axis -90 -7.62852e-016 -20   XYZ
    dof rx
    limits (-90.0 20.0)
  end
  begin
     id 11 
     name lowerback
     direction -0.0444974 0.988086 -0.147332   
     length 1.9609   
     axis 0 0 0   XYZ
    dof rx ry rz
    limits (-20.0 45.0)
           (-30.0 30.0)
           (-30.0 30.0)
  end
  begin
     id 12 
     name upperback
     direction 0.00613146 0.999513 0.0306081   
     length 1.94944   
     axis 0 0 0   XYZ
    dof rx ry rz
    limits (-20.0 45.0)
           (-30.0 30.0)
           (-30.0 30.0)
  end
  begin
     id 13 
     name thorax
     direction 0.0254621 0.994518 0.101418   
     length 2.0119   
     axis 0 0 0   XYZ
    dof rx ry rz
    limits (-20.0 45.0)
           (-30.0 30.0)
           (-30.0 30.0)
  end
  begin
     id 14 
     name lowerneck
     direction 0.0168698 0.977854 0.208608   
     length 1.6375   
     axis 0 0 0   XYZ
    dof rx ry rz
    limits (-20.0 45.0)
           (-30.0 30.0)
           (-30.0 30.0)
  end
  begin
     id 15 
     name upperneck
     direction -0.0283988 0.989338 -0.142843   
     length 1.6851   
     axis 0 0 0   XYZ
    dof rx ry rz
    limits (-20.0 45.0)
           (-30.0 30.0)
           (-30.0 30.0)
  end
  begin
     id 16
     name head
     direction -0.0129422 0.99741 -0.0707489  
     length 1.69029  
     axis 0 0 0   XYZ
    dof rx ry rz
    limits (-20.0 45.0)
           (-30.0 30.0)
           (-30.0 30.0)
  end
  begin
     id 17 
     name lclavicle
     direction 0.820295 0.564628 -0.0911715  
     length 3.16484  
     axis 0 0 0   XYZ
    dof ry rz
    limits (-20.0 10.0)
           (0.0 20.0)
  end
  begin
     id 18 
     name lhumerus
     direction 1 -4.48969e-011 1.00186e-027   
     length 5.17853   
     axis 180 -30 -90   XYZ
    dof rx ry rz
    limits (-60.0 90.0)
           (-90.0 90.0)
           (-90.0 90.0)
  end
  begin
     id 19
     name lradius
     direction 1 -4.48966e-011 -1.52922e-027   
     length 3.40399   
     axis 180 -30 -90   XYZ
    dof rx
    limits (-10.0 170.0)
  end
  begin
     id 20
     name lwrist
     direction 1 -4.48981e-011 -3.80893e-027   
     length 1.70199   
     axis 1.1049e-015 90 90   XYZ
    dof ry
    limits (-180.0 0.0)
 end
  begin
     id 21 
     name lhand
     direction 1 -4.48957e-011 -7.61786e-027   
     length 0.708964   
     axis 4.86085e-015 90 90   XYZ
    dof rx rz
    limits (-90.0 90.0)
           (-45.0 45.0)
  end
  begin
     id 22 
     name lfingers
     direction 1 -4.48929e-011 -1.52357e-026   
     length 0.571585   
     axis 9.7217e-015 90 90   XYZ
    dof rx
    limits (0.0 90.0)
  end
  begin
     id 23
     name lthumb
     direction 0.707107 -6.34905e-011 0.707107   
     length 0.820685   
     axis -90 45 2.85299e-015   XYZ
    dof rx rz
    limits (-45.0 45.0)
           (-45.0 45.0)
  end
  begin
     id 24 
     name rclavicle
     direction -0.858602 0.463947 -0.218075   
     length 3.35137  
     axis 0 0 0   XYZ 
    dof ry rz
    limits (-10.0 20.0)
           (-20.0 0.0)
  end
  begin
     id 25 
     name rhumerus
     direction -1 -4.48969e-011 -1.98511e-027  
     length 5.42351   
     axis 180 30 90   XYZ
    dof rx ry rz
    limits (-90.0 60.0)
           (-90.0 90.0)
           (-90.0 90.0)
  end
  begin
     id 26 
     name rradius
     direction -1 -4.48961e-011 -2.82624e-027   
     length 3.42066   
     axis 180 30 90   XYZ
    dof rx
    limits (-10.0 170.0)
  end
  begin
     id 27 
     name rwrist
     direction -1 -4.48966e-011 -3.80893e-027   
     length 1.71033   
     axis 1.1049e-015 -90 -90   XYZ
    dof ry
    limits (-180.0 0.0)
  end
  begin
     id 28
     name rhand
     direction -1 -4.48964e-011 -7.61786e-027   
     length 0.743608   
     axis 4.86085e-015 -90 -90   XYZ
    dof rx rz
    limits (-90.0 90.0)
           (-45.0 45.0)
  end
  begin
     id 29
     name rfingers
     direction -1 -4.48961e-011 -1.52357e-026   
     length 0.599516   
     axis 9.7217e-015 -90 -90   XYZ
    dof rx
    limits (0.0 90.0)
  end
  begin
     id 30
     name rthumb
     direction -0.707107 -6.34913e-011 0.707107   
     length 0.860789   
     axis -90 -45 -2.85299e-015   XYZ
    dof rx rz
    limits (-45.0 45.0)
           (-45.0 45.0)
  end
:hierarchy
  begin
    root lhipjoint rhipjoint lowerback
    lhipjoint lfemur
    lfemur ltibia
    ltibia lfoot
    lfoot ltoes
    rhipjoint rfemur
    rfemur rtibia
    rtibia rfoot
    rfoot rtoes
    lowerback upperback
    upperback thorax
    thorax lowerneck lclavicle rclavicle
    lowerneck upperneck
    upperneck head
    lclavicle lhumerus
    lhumerus lradius
    lradius lwrist
    lwrist lhand lthumb
    lhand lfingers
    rclavicle rhumerus
    rhumerus rradius
    rradius rwrist
    rwrist rhand rthumb
    rhand rfingers
  end

#!OML:ASF E:\mmandel\Project 1\Capture day 1\Session 2\Subject.ASF
:FULLY-SPECIFIED
:DEGREES
928
root 5.84521 14.2957 -2.1047 131.784 85.3558 110.732
lowerback 29.3191 0.472489 -4.23708
upperback 4.29258 -0.373105 -0.690389
thorax -11.3367 0.161667 1.77141
lowerneck -20.6459 -0.463169 1.60359
upperneck 2.28541 -0.232799 -6.64151
head 3.93936 -0.41949 -2.35582
rclavicle -1.44119e-014 -3.96575e-014
rhumerus -5.27967 -4.72444 -82.6798
rradius 75.3429
rwrist -9.6421
rhand -18.1179 38.0979
rfingers 7.12502
rthumb 8.15656 8.27529
lclavicle -1.44119e-014 -3.96575e-014
lhumerus 4.89945 -19.0228 73.2458
lradius 60.7201
lwrist 20.8661
lhand -22.0792 -35.3884
lfingers 7.12502
lthumb 4.33229 -5.45275
rfemur -60.182 -12.432 3.72677
rtibia 69.8512
rfoot -28.2463 -6.30653
rtoes -23.2101
lfemur -60.9208 10.2727 -16.5277
ltibia 66.5357
lfoot -22.7471 -9.25301
ltoes -1.0399
929
root 5.84327 14.3006 -2.06505 132.625 85.2156 111.567
lowerback 29.2869 0.479987 -4.22746
upperback 4.28102 -0.354707 -0.645551
thorax -11.3346 0.170332 1.8101
lowerneck -20.6066 -0.479731 1.51102
upperneck 2.33899 -0.23303 -6.61257
head 3.95025 -0.419922 -2.3319
rclavicle 1.61016e-014 4.40308e-014
rhumerus -5.2999 -4.68292 -82.4738
rradius 75.0262
rwrist -9.70455
rhand -18.1404 38.2299
rfingers 7.12502
rthumb 8.13484 8.40651
lclavicle 1.61016e-014 4.40308e-014
lhumerus 4.91216 -18.6585 73.6998
lradius 60.7404
lwrist 21.1561
lhand -21.9824 -35.9814
lfingers 7.12502
lthumb 4.42574 -6.04765
rfemur -60.2203 -12.4952 3.82703
rtibia 69.9467
rfoot -28.3044 -6.42979
rtoes -23.3022
lfemur -60.8243 10.2356 -16.4564
ltibia 66.2985
lfoot -22.547 -9.4422
ltoes -0.412616
930
root 5.84232 14.306 -2.02348 134.491 85.1583 113.471
lowerback 29.3334 0.482159 -4.10552
upperback 4.25762 -0.311426 -0.588968
thorax -11.3891 0.187247 1.78801
lowerneck -20.7334 -0.526389 1.40823
upperneck 2.53117 -0.275051 -6.46923
head 4.02642 -0.440251 -2.27677
rclavicle -2.5842e-015 -2.0276e-014
rhumerus -5.55631 -4.67302 -82.2593
rradius 74.9458
rwrist -9.83408
rhand -18.0857 38.4548
rfingers 7.12502
rthumb 8.18759 8.63348
lclavicle -2.5842e-015 -2.0276e-014
lhumerus 4.80736 -18.301 74.1021
lradius 60.9761
lwrist 21.7048
lhand -21.6763 -36.3949
lfingers 7.12502
lthumb 4.72134 -6.46753
rfemur -60.1828 -12.5069 4.05287
rtibia 70.0334
rfoot -28.3986 -6.55431
rtoes -23.2388
lfemur -60.709 10.2424 -16.255
ltibia 66.0706
lfoot -22.4027 -9.58375
ltoes -0.499546
931
root 5.83753 14.3103 -1.98314 135.675 85.105 114.651
lowerback 29.3419 0.479322 -3.98434
upperback 4.24012 -0.279881 -0.590974
thorax -11.4171 0.196857 1.70369
lowerneck -20.7912 -0.539797 1.47911
upperneck 2.50325 -0.319411 -6.37833
head 4.02356 -0.455768 -2.26385
rclavicle 1.66979e-014 5.50634e-014
rhumerus -5.70236 -4.75316 -82.1597
rradius 74.8621
rwrist -9.83122
rhand -17.8804 38.6321
rfingers 7.12502
rthumb 8.3858 8.81856
lclavicle 1.66979e-014 5.50634e-014
lhumerus 4.67526 -18.2936 74.3266
lradius 60.7657
lwrist 21.0234
lhand -22.7898 -37.4438
lfingers 7.12502
lthumb 3.6461 -7.49528
rfemur -60.2334 -12.5008 4.24799
rtibia 70.1341
rfoot -28.5046 -6.64266
rtoes -23.2125
lfemur -60.6618 10.3552 -16.1382
ltibia 65.8529
lfoot -22.3462 -9.682
ltoes -1.13776
932
root 5.83496 14.3136 -1.94543 136.067 84.9844 115.045
lowerback 29.2807 0.462412 -3.97297
upperback 4.26725 -0.294117 -0.605592
thorax -11.3538 0.188775 1.68567
lowerneck -20.838 -0.49285 1.61632
upperneck 2.37064 -0.296362 -6.35809
head 3.9895 -0.438315 -2.27677
rclavicle 1.8487e-014 1.96797e-014
rhumerus -5.62715 -4.80371 -82.1361
rradius 74.6455
rwrist -9.72446
rhand -17.8352 38.733
rfingers 7.12502
rthumb 8.42937 8.92117
lclavicle 1.8487e-014 1.96797e-014
lhumerus 4.56679 -18.0887 74.5012
lradius 60.9372
lwrist 21.0221
lhand -22.9978 -37.8527
lfingers 7.12502
lthumb 3.44523 -7.90083
rfemur -60.2804 -12.5656 4.3486
rtibia 70.2533
rfoot -28.6199 -6.58303
rtoes -22.8234
lfemur -60.5778 10.4035 -16.1094
ltibia 65.6261
lfoot -22.2218 -9.74521
ltoes -1.31663
933
root 5.83357 14.3123 -1.909 136.227 84.8479 115.144
lowerback 29.1631 0.466281 -4.01136
upperback 4.25815 -0.297134 -0.602378
thorax -11.3039 0.187366 1.71259
lowerneck -20.9553 -0.54665 1.66337
upperneck 2.3437 -0.392837 -6.2084
head 3.99318 -0.47701 -2.2468
rclavicle -8.15017e-015 -1.37161e-014
rhumerus -5.5419 -4.79127 -82.0592
rradius 74.3726
rwrist -9.69811
rhand -17.9713 38.8533
rfingers 7.12502
rthumb 8.29804 9.03629
lclavicle -8.15017e-015 -1.37161e-014
lhumerus 4.41279 -17.8471 74.7432
lradius 61.2023
lwrist 21.2019
lhand -22.9976 -38.0808
lfingers 7.12502
lthumb 3.44541 -8.12886
rfemur -60.4427 -12.653 4.42756
rtibia 70.3964
rfoot -28.6794 -6.4798
rtoes -21.9897
lfemur -60.5479 10.3337 -16.0651
ltibia 65.3906
lfoot -22.0306 -9.77366
ltoes -0.935418
934
root 5.833 14.3128 -1.87144 136.254 84.6975 115.136
lowerback 29.1109 0.484251 -4.06667
upperback 4.21127 -0.293095 -0.595858
thorax -11.3314 0.191215 1.75049
lowerneck -20.8496 -0.684916 1.60064
upperneck 2.25276 -0.590672 -5.93134
head 3.93975 -0.556092 -2.16561
rclavicle 1.70955e-014 1.27222e-014
rhumerus -5.58542 -4.76162 -81.9233
rradius 74.1464
rwrist -9.75721
rhand -18.1742 38.9224
rfingers 7.12502
rthumb 8.10221 9.09777
lclavicle 1.70955e-014 1.27222e-014
lhumerus 4.3452 -17.7014 75.0092
lradius 61.2005
lwrist 21.2156
lhand -23.1071 -38.5868
lfingers 7.12502
lthumb 3.33968 -8.63322
rfemur -60.5553 -12.6834 4.4589
rtibia 70.5136
rfoot -28.741 -6.44083
rtoes -21.3811
lfemur -60.4641 10.3119 -16.0552
ltibia 65.1094
lfoot -21.8618 -9.83734
ltoes -0.792011
